<svg xmlns="http://www.w3.org/2000/svg" xmlns:xlink="http://www.w3.org/1999/xlink" version="1.1" x="0px" y="0px" viewBox="0 0 100 125" enable-background="new 0 0 100 100" xml:space="preserve"><g><g><path fill="#ADD1E5" d="M41.474,42.716c-6.53,2.123-13.544-1.453-15.668-7.982c-2.121-6.531,1.452-13.544,7.985-15.666    c6.529-2.121,13.543,1.453,15.663,7.982C51.576,33.58,48.002,40.596,41.474,42.716 M44.218,45.441l1.484,2.062l1.89-1.09    l-0.938-2.339c0.619-0.424,1.205-0.89,1.752-1.389l2.05,1.503l1.46-1.623l-1.622-1.942c0.472-0.615,0.901-1.265,1.278-1.941    l2.409,0.819l0.907-1.987l-2.169-1.389c0.256-0.735,0.458-1.487,0.604-2.256l2.521,0.033l0.247-2.169l-2.487-0.649    c0.008-0.733-0.035-1.473-0.13-2.215l2.436-0.802l-0.474-2.131l-2.563,0.195c-0.019-0.058-0.035-0.115-0.053-0.174    c-0.201-0.616-0.436-1.211-0.701-1.784l2.098-1.538l-1.106-1.881l-2.392,0.984c-0.422-0.606-0.885-1.177-1.382-1.712l1.521-2.113    l-1.634-1.447l-1.975,1.678c-0.61-0.461-1.255-0.877-1.923-1.245l0.815-2.475l-1.995-0.888l-1.399,2.227    c-0.728-0.246-1.472-0.441-2.231-0.581l0.012-2.572l-2.17-0.228l-0.64,2.537c-0.728-0.004-1.459,0.041-2.191,0.14l-0.835-2.464    l-2.127,0.492l0.218,2.589c-0.029,0.009-0.058,0.018-0.087,0.026c-0.563,0.184-1.107,0.396-1.638,0.634l-1.502-2.09l-1.892,1.09    l0.95,2.369c-0.612,0.421-1.195,0.88-1.739,1.376l-2.071-1.52l-1.462,1.623l1.637,1.958c-0.47,0.616-0.896,1.26-1.273,1.933    l-2.43-0.827l-0.905,1.987l2.181,1.396c-0.256,0.732-0.457,1.483-0.606,2.249l-2.532-0.035l-0.247,2.17l2.494,0.651    c-0.012,0.734,0.032,1.471,0.125,2.214l-2.438,0.801l0.473,2.132l2.56-0.197c0.021,0.071,0.04,0.139,0.064,0.208    c0.197,0.605,0.427,1.192,0.687,1.756l-2.089,1.534l1.107,1.88l2.376-0.979c0.423,0.609,0.887,1.186,1.385,1.722l-1.513,2.098    l1.637,1.447l1.957-1.662c0.614,0.463,1.262,0.882,1.935,1.255l-0.81,2.447l1.993,0.889l1.386-2.201    c0.731,0.248,1.483,0.446,2.247,0.588l-0.013,2.54l2.174,0.229l0.631-2.505c0.73,0.004,1.47-0.042,2.209-0.142l0.825,2.433    l2.127-0.491l-0.218-2.556c0.028-0.009,0.059-0.019,0.089-0.027C43.134,45.896,43.686,45.681,44.218,45.441"/><path fill="#ADD1E5" d="M44.32,83.344c-1.775,0.983-4.012,0.342-4.997-1.434c-0.983-1.776-0.343-4.013,1.434-4.999    c1.776-0.984,4.014-0.342,4.997,1.435C46.74,80.122,46.097,82.359,44.32,83.344 M46.836,87.878    c4.281-2.372,5.825-7.766,3.455-12.047c-2.374-4.281-7.766-5.827-12.048-3.455c-4.28,2.374-5.827,7.767-3.453,12.047    C37.16,88.705,42.556,90.251,46.836,87.878 M47.04,88.244c-4.483,2.484-10.133,0.865-12.616-3.618    c-2.484-4.482-0.865-10.129,3.618-12.615c4.483-2.484,10.13-0.864,12.613,3.618C53.141,80.111,51.522,85.759,47.04,88.244     M49.687,87.544l2.055,1.214l1.293-1.762l-1.643-1.606c0.482-0.819,0.852-1.699,1.096-2.613l2.292,0.101l0.312-2.16l-2.254-0.664    c-0.006-0.835-0.11-1.674-0.326-2.5l2.061-1.119l-0.844-2.012l-2.255,0.588c-0.454-0.792-0.995-1.501-1.609-2.122l1.196-2.029    l-1.763-1.291l-1.606,1.644c-0.795-0.457-1.646-0.807-2.531-1.039l0.122-2.286l-2.157-0.333l-0.691,2.277    c-0.872,0.009-1.751,0.127-2.617,0.365l-1.086-2.05l-2.022,0.828l0.579,2.298c-0.767,0.454-1.457,0.994-2.06,1.602l-2.059-1.19    l-1.273,1.772l1.675,1.612c-0.414,0.738-0.736,1.524-0.958,2.336l-2.41-0.001l-0.218,2.173l2.262,0.559    c0,0.927,0.123,1.863,0.384,2.78l-2.018,1.141l0.878,1.999l2.225-0.624c0.441,0.732,0.961,1.386,1.536,1.966l-1.214,1.981    l1.737,1.321l1.655-1.633c0.754,0.431,1.562,0.762,2.396,0.989l-0.062,2.316l2.167,0.275l0.61-2.226    c0.886,0,1.776-0.111,2.654-0.347l1.166,2.062l1.997-0.879l-0.627-2.242C48.454,88.596,49.107,88.1,49.687,87.544"/><path fill="#ADD1E5" d="M59.421,61.342c-1.948,0.63-4.037-0.433-4.67-2.379s0.433-4.038,2.38-4.67    c1.946-0.633,4.036,0.433,4.668,2.379C62.433,58.618,61.367,60.709,59.421,61.342 M60.702,64.823    c3.868-1.257,5.986-5.413,4.729-9.279c-1.256-3.869-5.411-5.985-9.278-4.729c-3.868,1.257-5.986,5.412-4.729,9.279    C52.68,63.962,56.835,66.08,60.702,64.823 M61.693,68.083c-5.691,1.85-11.803-1.263-13.652-6.954    c-1.85-5.692,1.265-11.804,6.957-13.651c5.689-1.851,11.803,1.264,13.649,6.955C70.498,60.123,67.384,66.235,61.693,68.083     M65.232,69.52l1.717,1.977l1.782-1.259l-1.226-2.391c0.461-0.42,0.893-0.871,1.287-1.345l2.351,1.252l1.216-1.816l-1.99-1.783    c0.296-0.56,0.551-1.141,0.768-1.737l2.698,0.321l0.471-2.132l-2.481-0.934c0.094-0.667,0.14-1.346,0.132-2.027l2.651-0.622    l-0.283-2.165l-2.693-0.029c-0.092-0.42-0.208-0.839-0.342-1.255c-0.056-0.172-0.117-0.343-0.178-0.51l2.229-1.406l-0.974-1.954    l-2.499,0.829c-0.349-0.554-0.733-1.076-1.15-1.567l1.567-2.172l-1.638-1.448l-1.968,1.674c-0.509-0.394-1.042-0.749-1.601-1.066    l0.803-2.507l-2.002-0.87l-1.383,2.244c-0.627-0.202-1.271-0.359-1.924-0.468l-0.125-2.673l-2.182-0.115l-0.515,2.617    c-0.627,0.028-1.26,0.1-1.888,0.216l-0.999-2.438l-2.092,0.621l0.386,2.619c-0.597,0.244-1.17,0.531-1.714,0.85l-1.782-1.932    l-1.745,1.315l1.263,2.286c-0.456,0.417-0.881,0.862-1.275,1.332l-2.375-1.199l-1.175,1.841l1.979,1.697    c-0.315,0.591-0.589,1.208-0.815,1.842l-2.614-0.357l-0.51,2.123l2.462,0.977c-0.084,0.628-0.128,1.263-0.124,1.903l-2.6,0.54    l0.228,2.172l2.69,0.1c0.096,0.433,0.211,0.866,0.352,1.296c0.064,0.203,0.137,0.398,0.209,0.594l-2.237,1.383l0.957,1.963    l2.544-0.82c0.329,0.517,0.691,1.008,1.082,1.47l-1.606,2.095l1.588,1.496l2.057-1.641c0.534,0.415,1.1,0.789,1.688,1.122    l-0.826,2.464l1.99,0.898l1.425-2.245c0.593,0.189,1.204,0.335,1.822,0.44l0.021,2.589l2.175,0.2l0.622-2.612    c0.656-0.029,1.318-0.105,1.977-0.229l0.893,2.459l2.116-0.538l-0.292-2.74C64.17,70.095,64.714,69.824,65.232,69.52"/><path fill="#ADD1E5" d="M84.534,59.917c-0.581,0.188-1.204-0.128-1.394-0.708c-0.188-0.582,0.127-1.205,0.708-1.393    c0.581-0.189,1.204,0.128,1.393,0.708C85.431,59.107,85.113,59.729,84.534,59.917 M85.008,61.383    c1.365-0.443,2.112-1.908,1.67-3.272c-0.445-1.365-1.91-2.113-3.273-1.669c-1.366,0.443-2.111,1.909-1.668,3.273    C82.178,61.081,83.645,61.828,85.008,61.383 M86.149,64.784c-3.23,1.049-6.699-0.718-7.749-3.949    c-1.048-3.229,0.718-6.697,3.948-7.747s6.7,0.719,7.749,3.948C91.146,60.266,89.38,63.733,86.149,64.784 M88.076,66.432    c0.747-0.38,1.416-0.865,2.002-1.426l2.129,1.217l1.268-1.778l-1.741-1.659c0.392-0.765,0.667-1.586,0.812-2.443l2.488-0.27    l-0.019-2.183l-2.463-0.33c-0.066-0.41-0.166-0.821-0.298-1.227c-0.121-0.375-0.27-0.735-0.436-1.078l1.886-1.597l-1.237-1.798    L90.2,52.985c-0.593-0.593-1.273-1.092-2.007-1.483l0.582-2.375l-2.059-0.729l-1.164,2.223c-0.778-0.124-1.584-0.139-2.39-0.032    l-0.993-2.314l-2.083,0.656l0.407,2.473c-0.724,0.361-1.378,0.814-1.952,1.343l-2.169-1.215l-1.254,1.788l1.726,1.615    c-0.421,0.78-0.719,1.625-0.878,2.505l-2.435,0.158l-0.077,2.183l2.478,0.442c0.067,0.438,0.171,0.876,0.312,1.313    c0.106,0.328,0.235,0.645,0.378,0.951l-1.879,1.59l1.236,1.799l2.214-1.099c0.614,0.637,1.321,1.169,2.093,1.581l-0.597,2.347    l2.053,0.747l1.177-2.207c0.819,0.131,1.666,0.143,2.512,0.023l1.015,2.253l2.07-0.694L88.076,66.432z"/><path fill="#ADD1E5" d="M16.389,49.389c-0.562,0.239-1.211-0.023-1.449-0.585c-0.24-0.561,0.023-1.21,0.586-1.45    c0.56-0.239,1.209,0.025,1.448,0.586C17.212,48.502,16.95,49.151,16.389,49.389 M16.989,50.808    c1.32-0.561,1.938-2.086,1.378-3.408c-0.561-1.319-2.086-1.936-3.408-1.375c-1.32,0.561-1.938,2.085-1.376,3.408    C14.144,50.752,15.669,51.369,16.989,50.808 M18.424,54.095c-3.127,1.327-6.737-0.132-8.063-3.258    c-1.329-3.126,0.132-6.736,3.256-8.062c3.127-1.327,6.737,0.132,8.062,3.257C23.006,49.158,21.55,52.768,18.424,54.095     M20.485,55.57c0.712-0.445,1.336-0.983,1.872-1.596l2.226,1.027l1.105-1.881l-1.878-1.502c0.326-0.793,0.526-1.639,0.598-2.502    l2.455-0.487l-0.208-2.172l-2.482-0.116c-0.103-0.401-0.237-0.801-0.403-1.195c-0.156-0.361-0.333-0.708-0.528-1.035l1.74-1.755    l-1.388-1.685l-2.163,1.318c-0.646-0.539-1.363-0.979-2.13-1.302l0.374-2.417l-2.115-0.546l-0.965,2.316    c-0.787-0.054-1.588,0-2.386,0.177l-1.189-2.218l-2.018,0.836l0.621,2.425c-0.69,0.423-1.304,0.931-1.829,1.511l-2.267-1.024    l-1.09,1.891l1.856,1.461c-0.35,0.812-0.575,1.681-0.657,2.57l-2.409,0.37l0.114,2.181l2.506,0.224    c0.107,0.431,0.246,0.86,0.426,1.281c0.135,0.318,0.289,0.623,0.458,0.915l-1.732,1.747l1.387,1.685l2.111-1.286    c0.667,0.578,1.418,1.047,2.224,1.391l-0.391,2.39l2.109,0.565l0.981-2.301c0.827,0.059,1.67-0.001,2.504-0.196l1.205,2.156    l2.003-0.871L20.485,55.57z"/><path fill="#ADD1E5" d="M64.995,23.507c-2.031,0-3.678-1.646-3.678-3.677c0-2.03,1.646-3.676,3.678-3.676    c2.03,0,3.675,1.646,3.675,3.676C68.67,21.861,67.025,23.507,64.995,23.507 M64.995,28.692c4.894,0,8.86-3.968,8.86-8.862    c0-4.895-3.967-8.861-8.86-8.861c-4.896,0-8.863,3.967-8.863,8.861C56.132,24.724,60.1,28.692,64.995,28.692 M64.995,29.11    c-5.126,0-9.279-4.155-9.279-9.28c0-5.125,4.153-9.28,9.279-9.28c5.124,0,9.28,4.155,9.28,9.28    C74.275,24.955,70.119,29.11,64.995,29.11 M67.646,29.781l1.212,2.06l1.985-0.916l-0.66-2.202c0.821-0.481,1.57-1.071,2.227-1.753    l1.955,1.2l1.321-1.737l-1.651-1.673c0.401-0.732,0.714-1.519,0.93-2.345l2.344,0.021l0.238-2.17l-2.257-0.579    c-0.012-0.913-0.145-1.796-0.381-2.637l2.031-1.193l-0.917-1.983l-2.203,0.658c-0.473-0.787-1.047-1.504-1.707-2.136l1.214-1.939    L71.6,9.119l-1.707,1.656c-0.768-0.417-1.595-0.739-2.463-0.95l0.04-2.318L65.301,7.25l-0.607,2.289    c-0.894,0.026-1.757,0.164-2.577,0.403l-1.224-2.038l-1.975,0.931l0.684,2.223c-0.719,0.445-1.382,0.975-1.971,1.579l-2.107-1.168    l-1.244,1.794l1.709,1.584c-0.451,0.812-0.795,1.69-1.012,2.619l-2.32,0.019l-0.201,2.175l2.249,0.534    c0.032,0.852,0.166,1.676,0.39,2.464l-2.021,1.142l0.882,2l2.236-0.627c0.452,0.744,0.996,1.424,1.616,2.028l-1.176,1.997    l1.761,1.29l1.615-1.65c0.773,0.43,1.607,0.765,2.486,0.985l0.021,2.369l2.176,0.199l0.537-2.265    C66.062,30.105,66.874,29.988,67.646,29.781"/></g></g></svg>